nColumns=19
nRows=50
DataType=double
version=3
OpenSimVersion=4.1
endheader
time	ground_force_calcn_r_vx	ground_force_calcn_r_vy	ground_force_calcn_r_vz	ground_force_calcn_r_px	ground_force_calcn_r_py	ground_force_calcn_r_pz	ground_force_calcn_r_mx	ground_force_calcn_r_my	ground_force_calcn_r_mz	ground_force_calcn_l_vx	ground_force_calcn_l_vy	ground_force_calcn_l_vz	ground_force_calcn_l_px	ground_force_calcn_l_py	ground_force_calcn_l_pz	ground_force_calcn_l_mx	ground_force_calcn_l_my	ground_force_calcn_l_mz
6.69	0.625184	438.81	-16.7216	-0.279855	0	-0.424921	-0.00220304	-1.54629	0.0589241	8.54604	200.221	18.4684	-0.246104	0	-0.752826	-4.32184e-05	-0.00101254	-9.33971e-05
6.7	0.809601	441.144	-16.8801	-0.27976	0	-0.424821	-0.00283121	-1.5427	0.0590303	8.85667	200.27	18.0817	-0.245941	0	-0.752612	-0.000677643	-0.0153231	-0.00138347
6.71	1.03623	443.713	-17.0821	-0.279697	0	-0.424712	-0.00359893	-1.54105	0.0593277	9.22063	200.271	17.6878	-0.245884	0	-0.752383	-0.00128459	-0.0279012	-0.00246422
6.72	1.30288	446.467	-17.3254	-0.279662	0	-0.424594	-0.00449936	-1.54182	0.0598312	9.62852	200.226	17.291	-0.245921	0	-0.752145	-0.00184834	-0.0384365	-0.00331927
6.73	1.60556	449.368	-17.6069	-0.279651	0	-0.424467	-0.00552165	-1.54541	0.0605517	10.0693	200.146	16.897	-0.246038	0	-0.751903	-0.00234447	-0.0466009	-0.0039342
6.74	1.94027	452.376	-17.9226	-0.279663	0	-0.424333	-0.00665757	-1.55222	0.0614971	10.5309	200.05	16.5133	-0.246225	0	-0.751662	-0.00273914	-0.0520343	-0.00429521
6.75	2.3038	455.452	-18.2664	-0.279693	0	-0.424194	-0.00790378	-1.56255	0.0626677	11.0012	199.966	16.1484	-0.246473	0	-0.751427	-0.0029914	-0.0543738	-0.00439102
6.76	2.69369	458.554	-18.6316	-0.279739	0	-0.424052	-0.00926067	-1.57647	0.0640541	11.4701	199.93	15.8116	-0.246773	0	-0.751206	-0.0030581	-0.0533042	-0.00421559
6.77	3.10867	461.631	-19.0112	-0.279798	0	-0.423911	-0.0107326	-1.59377	0.0656359	11.9307	199.983	15.5114	-0.247121	0	-0.751006	-0.00289986	-0.0486076	-0.00377018
6.78	3.54917	464.629	-19.3979	-0.279867	0	-0.423772	-0.0123282	-1.61391	0.0673795	12.3789	200.163	15.2561	-0.247511	0	-0.750834	-0.00248508	-0.0401829	-0.00306268
6.79	4.01589	467.49	-19.7846	-0.279945	0	-0.423637	-0.0140543	-1.63606	0.0692395	12.8133	200.504	15.0537	-0.247936	0	-0.750695	-0.00178567	-0.0279424	-0.0020979
6.8	4.50621	470.161	-20.1644	-0.280028	0	-0.423508	-0.015903	-1.65926	0.0711628	13.2329	201.035	14.9118	-0.248389	0	-0.750594	-0.000778868	-0.0118326	-0.000877688
6.81	5.01033	472.595	-20.5316	-0.280111	0	-0.423387	-0.0178366	-1.68243	0.0730918	13.6354	201.777	14.8373	-0.248854	0	-0.750534	0.0005431	0.00803684	0.000590972
6.82	5.51079	474.757	-20.8817	-0.280188	0	-0.423276	-0.0197841	-1.70441	0.0749669	14.0166	202.747	14.8358	-0.249315	0	-0.750517	0.00217057	0.0313968	0.00229742
6.83	5.98736	476.62	-21.212	-0.280249	0	-0.423174	-0.0216561	-1.72392	0.0767232	14.3704	203.95	14.911	-0.249751	0	-0.750548	0.00407951	0.0578981	0.00423298
6.84	6.42292	478.175	-21.5208	-0.280294	0	-0.423086	-0.023366	-1.73956	0.0782907	14.6891	205.383	15.0637	-0.25014	0	-0.750623	0.00623239	0.0871415	0.00639132
6.85	6.8062	479.425	-21.8083	-0.280318	0	-0.42301	-0.0248427	-1.74991	0.0796004	14.9642	207.032	15.2914	-0.250469	0	-0.750742	0.00858511	0.118777	0.00877285
6.86	7.13139	480.38	-22.0754	-0.280323	0	-0.422949	-0.0260329	-1.75361	0.0805854	15.1873	208.875	15.5899	-0.250725	0	-0.750901	0.0110979	0.152633	0.0113921
6.87	7.39465	481.057	-22.3233	-0.280307	0	-0.422905	-0.0268911	-1.74939	0.08118	15.3509	210.883	15.9538	-0.250896	0	-0.751095	0.0137328	0.188654	0.0142721
6.88	7.5908	481.474	-22.5519	-0.280272	0	-0.422878	-0.0273704	-1.73607	0.0813163	15.4493	213.02	16.3787	-0.25098	0	-0.751321	0.0164517	0.226843	0.0174415
6.89	7.71359	481.647	-22.7599	-0.280217	0	-0.422868	-0.0274278	-1.71263	0.0809293	15.4787	215.251	16.8612	-0.25097	0	-0.751578	0.0192101	0.267141	0.020926
6.9	7.75848	481.584	-22.9453	-0.280141	0	-0.422876	-0.0270401	-1.67843	0.0799697	15.438	217.536	17.3997	-0.250864	0	-0.751862	0.0219579	0.309406	0.0247479
6.91	7.72388	481.288	-23.1064	-0.280044	0	-0.422902	-0.0262105	-1.63322	0.0784101	15.3284	219.839	17.9931	-0.25066	0	-0.752175	0.0246448	0.353453	0.028929
6.92	7.60895	480.762	-23.2433	-0.279926	0	-0.422947	-0.0249607	-1.57711	0.0762484	15.1525	222.122	18.6403	-0.250354	0	-0.752519	0.027222	0.39905	0.033488
6.93	7.41095	480.008	-23.3574	-0.279781	0	-0.423006	-0.0233217	-1.51055	0.073504	14.913	224.349	19.3394	-0.249941	0	-0.752896	0.0296404	0.445907	0.0384382
6.94	7.1264	479.028	-23.451	-0.279607	0	-0.423079	-0.0213374	-1.43428	0.0702155	14.6117	226.486	20.088	-0.249411	0	-0.75331	0.0318417	0.493557	0.0437756
6.95	6.75402	477.821	-23.5273	-0.279401	0	-0.423161	-0.0190728	-1.34933	0.0664392	14.2488	228.494	20.8819	-0.248757	0	-0.753763	0.0337632	0.541428	0.0494807
6.96	6.29691	476.388	-23.59	-0.279159	0	-0.423251	-0.0166149	-1.25699	0.0622441	13.8239	230.338	21.7149	-0.247968	0	-0.754259	0.0353394	0.588837	0.0555119
6.97	5.76314	474.729	-23.643	-0.278879	0	-0.423343	-0.0140675	-1.15878	0.0577111	13.3368	231.984	22.5783	-0.247031	0	-0.754802	0.0365143	0.63514	0.0618162
6.98	5.1647	472.848	-23.6903	-0.27856	0	-0.423434	-0.0115394	-1.05648	0.0529311	12.7884	233.402	23.4627	-0.245933	0	-0.755393	0.0372418	0.679707	0.0683272
6.99	4.51563	470.759	-23.7354	-0.278202	0	-0.423519	-0.00913273	-0.952096	0.0480041	12.1814	234.569	24.3587	-0.244662	0	-0.756034	0.0374868	0.721858	0.0749608
7	3.8309	468.479	-23.7814	-0.277806	0	-0.423596	-0.00693369	-0.847916	0.0430427	11.5206	235.467	25.2581	-0.243204	0	-0.75673	0.0372296	0.760931	0.0816238
7.01	3.12679	466.036	-23.8312	-0.277374	0	-0.423661	-0.00500805	-0.746431	0.0381695	10.812	236.08	26.1541	-0.24155	0	-0.75748	0.0364658	0.796233	0.0882104
7.02	2.42241	463.464	-23.8881	-0.276912	0	-0.423711	-0.00339876	-0.650263	0.0335162	10.0637	236.396	27.0399	-0.239695	0	-0.758287	0.0352066	0.827	0.0945954
7.03	1.74096	460.799	-23.9555	-0.276426	0	-0.423744	-0.00212327	-0.561991	0.0292162	9.28549	236.404	27.908	-0.237638	0	-0.759151	0.0334824	0.852443	0.100633
7.04	1.1095	458.084	-24.0379	-0.275927	0	-0.423757	-0.00117218	-0.483964	0.025396	8.48816	236.09	28.7486	-0.235387	0	-0.760065	0.0313419	0.871743	0.106152
7.05	0.557414	455.358	-24.1406	-0.275426	0	-0.423747	-0.000511936	-0.418207	0.022171	7.68508	235.446	29.5494	-0.232954	0	-0.761024	0.0288554	0.884036	0.11095
7.06	0.113915	452.658	-24.2693	-0.274935	0	-0.423715	-9.2185e-05	-0.366311	0.0196398	6.89384	234.468	30.2967	-0.230361	0	-0.762018	0.0261275	0.888627	0.114824
7.07	-0.194766	450.009	-24.4306	-0.274466	0	-0.423657	0.000142553	-0.32937	0.0178812	6.13512	233.158	30.9766	-0.227634	0	-0.763033	0.0232919	0.88518	0.117602
7.08	-0.34795	447.421	-24.6316	-0.274027	0	-0.423574	0.000239525	-0.308	0.0169562	5.42854	231.523	31.5756	-0.224806	0	-0.764054	0.0204869	0.873752	0.119164
7.09	-0.333356	444.895	-24.8782	-0.273628	0	-0.423465	0.000226444	-0.302211	0.0168994	4.78897	229.575	32.081	-0.221905	0	-0.765067	0.0178278	0.854633	0.119427
7.1	-0.1482	442.413	-25.1719	-0.273273	0	-0.42333	0.000104272	-0.311278	0.0177108	4.22308	227.322	32.4809	-0.218956	0	-0.766058	0.0153871	0.828261	0.118346
7.11	0.202309	439.947	-25.508	-0.272965	0	-0.423173	-0.000153531	-0.333875	0.019358	3.72729	224.77	32.7654	-0.215977	0	-0.767014	0.0131853	0.795122	0.115907
7.12	0.706314	437.454	-25.8751	-0.272704	0	-0.422995	-0.000594541	-0.368228	0.0217805	3.28898	221.918	32.9288	-0.212977	0	-0.767927	0.0111996	0.755672	0.112128
7.13	1.34662	434.881	-26.2571	-0.272491	0	-0.422803	-0.00127649	-0.412231	0.0248896	2.89055	218.766	32.9704	-0.209963	0	-0.768789	0.0093879	0.710507	0.107081
7.14	2.10244	432.17	-26.6356	-0.27232	0	-0.422598	-0.00225531	-0.463593	0.0285722	2.5151	215.317	32.8948	-0.206935	0	-0.769596	0.00771589	0.660554	0.100916
7.15	2.95082	429.257	-26.9932	-0.272185	0	-0.422388	-0.00357467	-0.520009	0.0327	2.14948	211.584	32.7116	-0.203893	0	-0.770342	0.00616625	0.606973	0.0938402
7.16	3.86662	426.088	-27.3151	-0.272079	0	-0.422176	-0.00525655	-0.579254	0.0371341	1.78435	207.59	32.4343	-0.200839	0	-0.771031	0.00473684	0.551079	0.0861019
7.17	4.82095	422.62	-27.5896	-0.271986	0	-0.421963	-0.00729303	-0.639331	0.0417369	1.41275	203.363	32.0789	-0.197771	0	-0.77166	0.00343387	0.4943	0.0779718
7.18	5.77984	418.826	-27.8087	-0.271893	0	-0.421753	-0.00964076	-0.6986	0.0463849	1.02879	198.933	31.6606	-0.194689	0	-0.772232	0.00226594	0.438156	0.0697335
